<svg width="82" height="82" viewBox="0 0 82 82" fill="none" xmlns="http://www.w3.org/2000/svg">
<path d="M10.2502 23.9166H71.7502C73.8002 23.9166 75.1668 22.55 75.1668 20.5C75.1668 18.45 73.8002 17.0833 71.7502 17.0833H10.2502C8.20016 17.0833 6.8335 18.45 6.8335 20.5C6.8335 22.55 8.20016 23.9166 10.2502 23.9166ZM10.2502 37.5833H44.4168C46.4668 37.5833 47.8335 36.2167 47.8335 34.1666C47.8335 32.1166 46.4668 30.75 44.4168 30.75H10.2502C8.20016 30.75 6.8335 32.1166 6.8335 34.1666C6.8335 36.2167 8.20016 37.5833 10.2502 37.5833ZM71.7502 58.0833H10.2502C8.20016 58.0833 6.8335 59.45 6.8335 61.5C6.8335 63.55 8.20016 64.9167 10.2502 64.9167H71.7502C73.8002 64.9167 75.1668 63.55 75.1668 61.5C75.1668 59.45 73.8002 58.0833 71.7502 58.0833ZM10.2502 51.25H44.4168C46.4668 51.25 47.8335 49.8833 47.8335 47.8333C47.8335 45.7833 46.4668 44.4167 44.4168 44.4167H10.2502C8.20016 44.4167 6.8335 45.7833 6.8335 47.8333C6.8335 49.8833 8.20016 51.25 10.2502 51.25ZM74.4835 33.1416C73.1168 31.775 71.0668 31.4333 69.7002 32.8L62.8668 38.6083L62.5252 38.95C61.1585 40.3166 61.5002 42.7083 62.8668 43.7333L69.7002 49.5417C70.3835 49.8833 71.0668 50.225 71.7502 50.225C72.7752 50.225 73.8002 49.8833 74.4835 48.8583C75.8502 47.4917 75.5085 45.1 74.1418 44.075L70.3835 41L74.1418 37.925C75.5085 36.5583 75.5085 34.5083 74.4835 33.1416Z" fill="white"/>
</svg>
