<svg width="96" height="75" viewBox="0 0 96 75" fill="none" xmlns="http://www.w3.org/2000/svg">
<path d="M12 22.2166H84C86.4 22.2166 88 20.9936 88 19.1593C88 17.3249 86.4 16.1019 84 16.1019H12C9.6 16.1019 8 17.3249 8 19.1593C8 20.9936 9.6 22.2166 12 22.2166ZM12 34.4459H52C54.4 34.4459 56 33.2229 56 31.3886C56 29.5542 54.4 28.3312 52 28.3312H12C9.6 28.3312 8 29.5542 8 31.3886C8 33.2229 9.6 34.4459 12 34.4459ZM84 52.7898H12C9.6 52.7898 8 54.0128 8 55.8472C8 57.6815 9.6 58.9045 12 58.9045H84C86.4 58.9045 88 57.6815 88 55.8472C88 54.0128 86.4 52.7898 84 52.7898ZM12 46.6752H52C54.4 46.6752 56 45.4522 56 43.6179C56 41.7835 54.4 40.5605 52 40.5605H12C9.6 40.5605 8 41.7835 8 43.6179C8 45.4522 9.6 46.6752 12 46.6752ZM72 42.7007C72 44.5351 73.6 45.758 76 45.758C76.8 45.758 78 45.4522 78.4 45.1465L86.4 39.9491L86.8 39.6433C88.4 38.4204 88 36.2803 86.4 35.3631L78.4 30.1656C76.8 28.9427 74 29.2484 72.8 30.4714C71.2 31.6943 71.6 33.8344 73.2 34.7516L77.6 37.5032L73.2 40.2548C72.4 40.8663 72 41.7835 72 42.7007Z" fill="white"/>
</svg>
